<?xml version="1.0" encoding="utf-8"?>
<!-- Generator: Adobe Illustrator 24.0.1, SVG Export Plug-In . SVG Version: 6.00 Build 0)  -->
<svg version="1.1" id="Слой_1" xmlns="http://www.w3.org/2000/svg" xmlns:xlink="http://www.w3.org/1999/xlink" x="0px" y="0px"
	 viewBox="0 0 237 40" style="enable-background:new 0 0 237 40;" xml:space="preserve">
<style type="text/css">
	.st0{fill-rule:evenodd;clip-rule:evenodd;fill:#F2E500;}
	.st1{fill:#F2E500;}
	.st2{fill-rule:evenodd;clip-rule:evenodd;}
	.st3{fill-rule:evenodd;clip-rule:evenodd;fill:#FFFFFF;}
	.st4{fill-rule:evenodd;clip-rule:evenodd;fill:#12B5DB;}
	.st5{fill-rule:evenodd;clip-rule:evenodd;fill:#625D7B;}
	.st6{fill:#12B5DB;}
	.st7{fill-rule:evenodd;clip-rule:evenodd;fill:#E42221;}
	.st8{fill-rule:evenodd;clip-rule:evenodd;fill:#027FC2;}
	.st9{fill:#027FC2;}
	.st10{clip-path:url(#SVGID_2_);}
	.st11{fill:#DA253A;}
	.st12{fill:#E5E5E5;}
	.st13{opacity:5.000000e-02;}
	.st14{fill:#008C71;}
	.st15{fill:#00785E;}
	.st16{fill:#15654E;}
	.st17{fill:#20947F;}
</style>
<g>
	<g>
		<g>
			<g>
				<g>
					<path class="st0" d="M184.9,26.5v7.1h-2.1c-1.8,0-3.2-0.2-4.4-0.5c-1.2-0.3-2.1-0.8-2.9-1.6c-0.7-0.7-1.2-1.7-1.6-3
						c-0.3-1.2-0.5-2.8-0.5-4.5V8.7h7.8v14.6c0,0.7,0,1.3,0.1,1.7c0.1,0.4,0.2,0.7,0.4,1c0.2,0.2,0.5,0.4,0.9,0.5
						c0.4,0.1,0.9,0.1,1.5,0.1H184.9L184.9,26.5z"/>
				</g>
				<g>
					<polygon class="st0" points="188.5,8.7 196.3,8.7 196.3,33.6 188.5,33.6 188.5,8.7 					"/>
				</g>
				<g>
					<path class="st0" d="M237,18.4v4.5h-6.6c-0.7,0-1.2,0.1-1.7,0.4c-0.4,0.3-0.7,0.7-0.7,1.2c0,1.2,1.1,1.8,3.2,1.8h5.7v7.2h-6.8
						c-3.2,0-5.7-0.6-7.4-1.9c-1.7-1.3-2.5-3.3-2.5-6c0-1,0.1-1.8,0.3-2.6c0.2-0.8,0.7-1.6,1.5-2.5c-0.6-0.6-1-1.3-1.3-2
						c-0.3-0.7-0.4-1.4-0.4-2.1c0-1.5,0.3-2.7,0.8-3.7c0.5-1,1.2-1.8,2.1-2.4c0.9-0.6,1.9-1.1,3.1-1.3c1.2-0.3,2.5-0.4,3.8-0.4h6.8
						v7.2h-6.5c-0.9,0-1.5,0.1-1.9,0.3c-0.4,0.2-0.5,0.5-0.5,1c0,0.5,0.2,0.8,0.6,1c0.4,0.2,1,0.3,1.9,0.3H237L237,18.4z"/>
				</g>
			</g>
			<g>
				<g>
					<path class="st1" d="M184.9,26.5v7.1h-2.1c-1.8,0-3.2-0.2-4.4-0.5c-1.2-0.3-2.1-0.8-2.9-1.6c-0.7-0.7-1.2-1.7-1.6-3
						c-0.3-1.2-0.5-2.8-0.5-4.5V8.7h7.8v14.6c0,0.7,0,1.3,0.1,1.7c0.1,0.4,0.2,0.7,0.4,1c0.2,0.2,0.5,0.4,0.9,0.5
						c0.4,0.1,0.9,0.1,1.5,0.1H184.9L184.9,26.5z"/>
				</g>
				<g>
					<polygon class="st1" points="188.5,8.7 196.3,8.7 196.3,33.6 188.5,33.6 188.5,8.7 					"/>
				</g>
				<g>
					<path class="st1" d="M237,18.4v4.5h-6.6c-0.7,0-1.2,0.1-1.7,0.4c-0.4,0.3-0.7,0.7-0.7,1.2c0,1.2,1.1,1.8,3.2,1.8h5.7v7.2h-6.8
						c-3.2,0-5.7-0.6-7.4-1.9c-1.7-1.3-2.5-3.3-2.5-6c0-1,0.1-1.8,0.3-2.6c0.2-0.8,0.7-1.6,1.5-2.5c-0.6-0.6-1-1.3-1.3-2
						c-0.3-0.7-0.4-1.4-0.4-2.1c0-1.5,0.3-2.7,0.8-3.7c0.5-1,1.2-1.8,2.1-2.4c0.9-0.6,1.9-1.1,3.1-1.3c1.2-0.3,2.5-0.4,3.8-0.4h6.8
						v7.2h-6.5c-0.9,0-1.5,0.1-1.9,0.3c-0.4,0.2-0.5,0.5-0.5,1c0,0.5,0.2,0.8,0.6,1c0.4,0.2,1,0.3,1.9,0.3H237L237,18.4z"/>
				</g>
			</g>
		</g>
		<g>
			<path class="st2" d="M21.1,4.7c-1.1,1-1.6,2.3-1.6,3.8c0,0.3,0,0.5,0.1,0.8h-5.3c-0.2,0-0.5,0.1-0.7,0.2
				c-0.3,0.1-0.5,0.3-0.6,0.6l0-0.1l-3.8,5.8v0L9,16l0,0.1l0,0c-0.5,1.2-0.7,2.2-0.7,3c0,1.1,0.4,1.9,1.1,2.5c0.7,0.7,1.7,1,3.1,1
				c-0.3,0.7-0.8,1.7-0.9,2H5.8c-0.3,0-0.6,0.1-0.8,0.3c-2.1,1.5-3.4,2.7-4,3.9c-0.3,0.6-0.5,1.2-0.5,1.8c0,0.9,0.4,1.8,1.3,2.5
				c0.3,0.3,0.6,0.4,1,0.4h14.5c0.3,0,0.6-0.1,0.8-0.3c0.3-0.2,0.4-0.4,0.5-0.6c0.1-0.3,0.8-1.9,1.2-2.9c0.7,1.3,3.9,7.1,3.9,7.1
				l0,0c0.1,0.2,0.2,0.3,0.4,0.4c0.2,0.1,0.4,0.2,0.6,0.2l-0.1,0c2.9,0.7,4.9,0.9,6.1,0.5c1-0.3,1.7-0.9,1.9-1.8l0,0.1
				c0.1-0.3,0.2-0.6,0.2-0.9c0-0.5-0.1-1.1-0.4-1.7l0-0.1c0,0,0,0-0.1,0c0,0,0-0.1-0.1-0.1l0.1,0.1c0,0-5.5-10.1-6.3-11.5
				c0.3,0.4,0.6,0.8,0.6,0.8l0,0c0.1,0.2,0.3,0.4,0.6,0.5c0.2,0.1,0.4,0.2,0.7,0.2h6.6c0.4,0,0.7-0.1,1-0.4l0,0l0,0
				c1.4-1.4,2.1-2.7,2.1-4c0,0,0-0.1,0-0.1c0,0,0-0.1,0-0.1c0-1.4-0.7-2.7-2.2-3.9l0,0l0,0c-0.3-0.2-0.6-0.3-1-0.3h-3.5
				c-0.2-0.3-1.6-2.1-1.9-2.5c0.8-1,1.2-2.1,1.2-3.5c0-1.5-0.5-2.8-1.5-3.8l-0.1-0.1h0c-1-1-2.3-1.4-3.7-1.4
				C23.3,3.1,22.1,3.7,21.1,4.7L21.1,4.7z"/>
			<path class="st3" d="M24.8,2.7c-0.8,0-1.5,0.1-2.2,0.4c-0.7,0.3-1.3,0.7-1.9,1.3C19.6,5.5,19,6.9,19,8.5c0,0.1,0,0.3,0,0.4h-4.8
				c-0.3,0-0.6,0.1-0.9,0.2c-0.3,0.1-0.6,0.4-0.7,0.7l-3.8,5.7l0,0l0,0c0,0.1-0.1,0.1-0.1,0.2c0,0,0,0,0,0.1l0,0.1l0,0
				c-0.6,1.4-0.8,2.5-0.7,3.5c0,0.5,0.2,1,0.4,1.4c0.2,0.4,0.5,0.8,0.9,1.1c0.6,0.6,1.5,1,2.7,1.1l-0.5,1.2H5.8
				c-0.4,0-0.8,0.1-1.1,0.3c-2.1,1.5-3.5,2.8-4.1,4.1c0,0,0,0,0,0l0,0l0,0c-0.5,0.9-0.6,1.8-0.5,2.6c0.2,0.8,0.6,1.6,1.4,2.2
				C1.7,33.8,2.2,34,2.7,34h14.5c0.4,0,0.8-0.1,1.1-0.4c0,0,0,0,0,0c0.3-0.2,0.6-0.5,0.7-0.8l0.9-2.1l3.4,6.3l0,0l0,0l0,0
				c0.1,0.2,0.3,0.4,0.5,0.5l0,0c0.2,0.1,0.4,0.3,0.7,0.3c1.9,0.5,3.4,0.7,4.6,0.7c0.7,0,1.3-0.1,1.7-0.2c1.2-0.4,1.9-1.1,2.2-2
				c0.2-0.4,0.2-0.9,0.2-1.4c-0.1-0.5-0.2-0.9-0.4-1.5l-0.1-0.3l0-0.1l-5.1-9.3c0.1,0,0.2,0,0.3,0h6.6c0.5,0,0.9-0.2,1.3-0.5l0,0
				l0,0c1.6-1.5,2.3-3,2.3-4.4c0-1.6-0.8-3-2.4-4.4l0,0l0,0c-0.3-0.3-0.8-0.4-1.2-0.4h-3.3L29.5,12c0.7-1,1.1-2.2,1.1-3.5
				c0-0.8-0.1-1.5-0.4-2.2C30,5.6,29.5,4.9,29,4.4l-0.3-0.3l0,0C27.6,3.2,26.3,2.7,24.8,2.7z M19.9,8.5c0-1.4,0.5-2.6,1.5-3.5
				c0.9-1,2.1-1.4,3.5-1.4c1.4,0,2.5,0.5,3.5,1.4l0,0c0.9,0.9,1.4,2.1,1.4,3.5c0,1.3-0.5,2.5-1.4,3.4l2.3,2.9h3.7
				c0.3,0,0.5,0.1,0.7,0.2c1.4,1.2,2.1,2.4,2.1,3.6V19c0,1.2-0.7,2.4-2,3.7c-0.2,0.2-0.5,0.3-0.7,0.3h-6.6c-0.2,0-0.3,0-0.5-0.1
				c-0.2-0.1-0.3-0.2-0.4-0.3l-1.3-1.8l-0.4,0.7l0,0.1l0.4,0.8l6.2,11.3c0,0.1,0.1,0.1,0.1,0.2c0.2,0.6,0.4,1.1,0.4,1.5
				c0,0.3,0,0.5-0.1,0.7c-0.2,0.7-0.7,1.2-1.6,1.5c-0.4,0.1-0.9,0.2-1.5,0.2c-1.1,0-2.6-0.2-4.4-0.7c-0.1,0-0.3-0.1-0.4-0.2
				c-0.1-0.1-0.2-0.2-0.3-0.3l-4.3-7.8l-1.6,3.7c-0.1,0.2-0.2,0.3-0.4,0.4c-0.2,0.1-0.4,0.2-0.6,0.2H2.7c-0.3,0-0.5-0.1-0.7-0.3
				c-0.7-0.7-1.1-1.4-1.1-2.2c0-0.5,0.2-1,0.4-1.6c0.6-1.1,1.9-2.4,3.9-3.8C5.3,25.1,5.5,25,5.8,25h6.1l0.9-2l0.1-0.1l0.4-0.8
				c-0.3,0-0.5,0-0.8,0c-1.3,0-2.1-0.3-2.7-0.9c-0.6-0.5-1-1.2-1-2.2c0-0.8,0.2-1.7,0.7-2.9c0-0.1,0.1-0.1,0.1-0.2l3.8-5.8
				c0.1-0.2,0.2-0.3,0.4-0.3c0.2-0.1,0.3-0.1,0.5-0.1h5.8C19.9,9.4,19.9,8.9,19.9,8.5L19.9,8.5z M13.3,9.2
				C13.3,9.2,13.3,9.2,13.3,9.2C13.3,9.2,13.3,9.2,13.3,9.2z M38,18.8 M23.9,37.6C23.9,37.6,23.9,37.6,23.9,37.6
				C23.9,37.6,23.9,37.6,23.9,37.6z"/>
			<path class="st4" d="M25,5.7h-0.1c-0.8,0-1.4,0.3-1.9,0.8h0c-0.6,0.5-0.8,1.2-0.8,2c0,0.6,0.2,1.1,0.5,1.6c0,0,0,0,0.1,0.1l0,0
				c0,0.1,0.1,0.1,0.1,0.2c0,0,0.1,0.1,0.1,0.1c0,0,0,0,0.1,0.1c0.5,0.5,1.2,0.8,1.9,0.8h0.1L25,5.7z"/>
			<path class="st4" d="M25,11.3c0.5,0,1-0.2,1.4-0.4c0,0,0.1,0,0.1,0c0.1-0.1,0.3-0.2,0.4-0.3c0.5-0.6,0.8-1.2,0.8-2
				c0-0.8-0.3-1.4-0.8-2l0,0C26.3,6,25.7,5.7,25,5.7V11.3z"/>
			<path class="st5" d="M18.6,25.9L18.6,25.9l0.1-0.1"/>
			<path class="st6" d="M24.7,5.7c0.2,0,0.4,0,0.5,0c0,0.2-0.1,5.6-0.1,5.6s-0.1,0-0.4,0C24.7,11.1,24.7,5.7,24.7,5.7z"/>
			<polygon class="st7" points="6,27.3 6.1,27.2 6.3,27.2 6.3,31 5.8,31 			"/>
			<path class="st1" d="M23.3,20.3h-7l-2.9,6.2c0,0-0.4,0.6-1,0.6H6.3l-0.2,0c0,0-1.5,1.1-2.1,1.7c-0.1,0.1-0.8,0.8-0.9,1.3
				c0,0-0.1,0.4,0,0.6c0,0.1,0,0.1,0,0.1l13.3,0l2.1-5.1c0.2-0.4,0.6-0.7,1-0.7c0.1,0,0.5,0,0.9,0.6l2.9,5.2l2.3,4.1
				c0,0,2,0.5,3.2,0.5c0.2,0,0.9,0,1.2-0.2c0,0,0.1,0,0-0.2c0,0,0-0.4-0.4-1.1c-0.4-0.7-6.5-11.7-6.5-11.7s-0.6-0.9-0.3-1.5
				C23.1,20.7,23.3,20.3,23.3,20.3z"/>
			<path class="st6" d="M14.8,11.9l10.8,0l2.6,3.3l1.1,1.4c0,0,0.3,0.4,0.8,0.4c0.2,0,3.9,0,3.9,0s0.7,0.7,0.9,1.2
				c0,0.1,0.3,0.5,0.1,1c-0.1,0.2-0.2,0.7-0.5,1c-0.3,0.3-0.5,0.6-0.5,0.6h-5.6l-1.9-2.6c0,0-0.4-0.6-1-0.6c-0.1,0-0.6,0-1,0.7
				l-1.2,2.1h-7l1.7-3.6l0.4-0.8c0,0,0.3-0.6-0.2-1.2c0,0-0.4-0.4-1-0.3c-0.1,0-0.5,0.1-0.8,0.6l-2.2,4.8c0,0-0.9,0.2-1.4,0.2
				c-0.4,0-0.7,0-1.1-0.1c-0.1,0-0.5-0.1-0.6-0.3c-0.1-0.2-0.2-0.4-0.2-0.8c0-0.4,0.1-1.1,0.3-1.4c0-0.1,0.1-0.3,0.1-0.3L14.8,11.9z
				"/>
		</g>
		<g>
			<g>
				<g>
					<g>
						<path class="st8" d="M60.4,8.4v7.4c-0.3-0.1-0.7-0.3-1.2-0.4c-0.4-0.1-0.8-0.2-1-0.2c-0.4,0-0.8,0.1-1.1,0.4
							c-0.3,0.3-0.4,0.6-0.4,0.9c0,0.6,0.2,1.2,0.5,1.9c0.3,0.7,0.7,1.5,1.1,2.3c0.4,0.8,0.7,1.6,1,2.4c0.3,0.8,0.5,1.5,0.5,2.2
							c0,2.8-0.8,5-2.3,6.4c-1.5,1.5-3.8,2.2-6.8,2.2c-0.3,0-0.6,0-1-0.1c-0.4-0.1-0.9-0.2-1.7-0.3v-7.4c0.3,0.1,0.8,0.3,1.3,0.3
							c0.5,0.1,0.9,0.1,1.2,0.1c0.5,0,0.8-0.1,1.1-0.4c0.3-0.3,0.4-0.6,0.4-0.9c0-0.4-0.2-1-0.5-1.6c-0.3-0.7-0.7-1.4-1-2.2
							c-0.4-0.8-0.7-1.6-1-2.5c-0.3-0.9-0.5-1.7-0.5-2.5c0-2.8,0.7-4.9,2.2-6.4C52.5,8.7,54.6,8,57.4,8C58.4,8,59.3,8.2,60.4,8.4
							L60.4,8.4z"/>
					</g>
					<g>
						<path class="st9" d="M60.4,8.4v7.4c-0.3-0.1-0.7-0.3-1.2-0.4c-0.4-0.1-0.8-0.2-1-0.2c-0.4,0-0.8,0.1-1.1,0.4
							c-0.3,0.3-0.4,0.6-0.4,0.9c0,0.6,0.2,1.2,0.5,1.9c0.3,0.7,0.7,1.5,1.1,2.3c0.4,0.8,0.7,1.6,1,2.4c0.3,0.8,0.5,1.5,0.5,2.2
							c0,2.8-0.8,5-2.3,6.4c-1.5,1.5-3.8,2.2-6.8,2.2c-0.3,0-0.6,0-1-0.1c-0.4-0.1-0.9-0.2-1.7-0.3v-7.4c0.3,0.1,0.8,0.3,1.3,0.3
							c0.5,0.1,0.9,0.1,1.2,0.1c0.5,0,0.8-0.1,1.1-0.4c0.3-0.3,0.4-0.6,0.4-0.9c0-0.4-0.2-1-0.5-1.6c-0.3-0.7-0.7-1.4-1-2.2
							c-0.4-0.8-0.7-1.6-1-2.5c-0.3-0.9-0.5-1.7-0.5-2.5c0-2.8,0.7-4.9,2.2-6.4C52.5,8.7,54.6,8,57.4,8C58.4,8,59.3,8.2,60.4,8.4
							L60.4,8.4z"/>
					</g>
				</g>
				<g>
					<g>
						<path class="st8" d="M72.1,26.6v-7.2c0.7,0,2.5-0.1,2.9-0.4c0.5-0.2,1-0.7,1-1.3c0-0.5-0.2-0.9-0.6-1.3
							c-0.4-0.3-1.1-0.5-1.9-0.5h-1.3v17.7h-7.8V8.7h9.3c1.5,0,2.9,0.2,4.2,0.6c1.3,0.4,2.4,0.9,3.3,1.7c0.9,0.8,1.7,1.7,2.2,2.8
							c0.5,1.1,0.8,2.3,0.8,3.8c0,3.1-0.9,5.4-2.8,6.9C79.5,25.8,75.5,26.6,72.1,26.6z"/>
					</g>
					<g>
						<path class="st9" d="M72.1,26.6v-7.2c0.7,0,2.5-0.1,2.9-0.4c0.5-0.2,1-0.7,1-1.3c0-0.5-0.2-0.9-0.6-1.3
							c-0.4-0.3-1.1-0.5-1.9-0.5h-1.3v17.7h-7.8V8.7h9.3c1.5,0,2.9,0.2,4.2,0.6c1.3,0.4,2.4,0.9,3.3,1.7c0.9,0.8,1.7,1.7,2.2,2.8
							c0.5,1.1,0.8,2.3,0.8,3.8c0,3.1-0.9,5.4-2.8,6.9C79.5,25.8,75.5,26.6,72.1,26.6z"/>
					</g>
				</g>
				<g>
					<g>
						<path class="st8" d="M100.3,34.2c-1.7,0-3.4-0.3-5-1c-1.6-0.7-3-1.6-4.2-2.8c-1.2-1.2-2.1-2.6-2.9-4.1
							c-0.7-1.6-1.1-3.3-1.1-5.1c0-1.8,0.4-3.5,1.1-5.1c0.7-1.6,1.7-3,2.9-4.1c1.2-1.2,2.6-2.1,4.2-2.8c1.6-0.7,3.2-1,5-1
							c1.8,0,3.5,0.3,5.1,1c1.6,0.7,3,1.6,4.2,2.8c1.2,1.2,2.1,2.6,2.8,4.2c0.7,1.6,1,3.3,1,5.2c0,1.8-0.3,3.4-1,5
							c-0.7,1.6-1.6,2.9-2.8,4.1c-1.2,1.2-2.6,2.1-4.2,2.8C103.8,33.9,102.1,34.2,100.3,34.2L100.3,34.2z M100.2,26.9
							c0.7,0,1.4-0.1,2-0.4c0.6-0.3,1.2-0.7,1.7-1.2c0.5-0.5,0.9-1.1,1.1-1.8c0.3-0.7,0.4-1.4,0.4-2.3c0-0.8-0.1-1.6-0.4-2.3
							c-0.3-0.7-0.6-1.3-1.1-1.8c-0.5-0.5-1-0.9-1.6-1.2c-0.6-0.3-1.3-0.4-2-0.4c-0.7,0-1.4,0.1-2,0.4c-0.6,0.3-1.2,0.7-1.6,1.2
							c-0.5,0.5-0.8,1.1-1.1,1.8c-0.3,0.7-0.4,1.5-0.4,2.3c0,0.8,0.1,1.6,0.4,2.3c0.3,0.7,0.6,1.3,1.1,1.8c0.5,0.5,1,0.9,1.6,1.2
							C98.9,26.7,99.5,26.9,100.2,26.9L100.2,26.9z"/>
					</g>
					<g>
						<path class="st9" d="M100.3,34.2c-1.7,0-3.4-0.3-5-1c-1.6-0.7-3-1.6-4.2-2.8c-1.2-1.2-2.1-2.6-2.9-4.1
							c-0.7-1.6-1.1-3.3-1.1-5.1c0-1.8,0.4-3.5,1.1-5.1c0.7-1.6,1.7-3,2.9-4.1c1.2-1.2,2.6-2.1,4.2-2.8c1.6-0.7,3.2-1,5-1
							c1.8,0,3.5,0.3,5.1,1c1.6,0.7,3,1.6,4.2,2.8c1.2,1.2,2.1,2.6,2.8,4.2c0.7,1.6,1,3.3,1,5.2c0,1.8-0.3,3.4-1,5
							c-0.7,1.6-1.6,2.9-2.8,4.1c-1.2,1.2-2.6,2.1-4.2,2.8C103.8,33.9,102.1,34.2,100.3,34.2L100.3,34.2z M100.2,26.9
							c0.7,0,1.4-0.1,2-0.4c0.6-0.3,1.2-0.7,1.7-1.2c0.5-0.5,0.9-1.1,1.1-1.8c0.3-0.7,0.4-1.4,0.4-2.3c0-0.8-0.1-1.6-0.4-2.3
							c-0.3-0.7-0.6-1.3-1.1-1.8c-0.5-0.5-1-0.9-1.6-1.2c-0.6-0.3-1.3-0.4-2-0.4c-0.7,0-1.4,0.1-2,0.4c-0.6,0.3-1.2,0.7-1.6,1.2
							c-0.5,0.5-0.8,1.1-1.1,1.8c-0.3,0.7-0.4,1.5-0.4,2.3c0,0.8,0.1,1.6,0.4,2.3c0.3,0.7,0.6,1.3,1.1,1.8c0.5,0.5,1,0.9,1.6,1.2
							C98.9,26.7,99.5,26.9,100.2,26.9L100.2,26.9z"/>
					</g>
				</g>
				<g>
					<g>
						<path class="st8" d="M125.1,33.6h-7.7V8.7h9.1c1.5,0,2.8,0.1,4.1,0.4c1.3,0.3,2.4,0.8,3.4,1.4c1,0.6,1.7,1.5,2.3,2.5
							c0.6,1,0.8,2.3,0.8,3.8c0,1-0.2,2-0.5,3c-0.3,1-0.9,1.8-1.8,2.4c1,0.8,1.7,1.6,2,2.6c0.3,1,0.5,2.1,0.5,3.6v5.2h-7.9v-5.2
							c0-1.1-0.2-1.8-0.5-2.3c-0.3-0.4-0.9-0.6-1.7-0.6h-1.9v-5.6h1.9c0.8,0,1.3-0.2,1.6-0.5c0.3-0.3,0.5-0.8,0.5-1.5
							c0-0.7-0.2-1.2-0.5-1.5c-0.3-0.3-1.1-0.5-2.1-0.5h-1.3V33.6L125.1,33.6z"/>
					</g>
					<g>
						<path class="st9" d="M125.1,33.6h-7.7V8.7h9.1c1.5,0,2.8,0.1,4.1,0.4c1.3,0.3,2.4,0.8,3.4,1.4c1,0.6,1.7,1.5,2.3,2.5
							c0.6,1,0.8,2.3,0.8,3.8c0,1-0.2,2-0.5,3c-0.3,1-0.9,1.8-1.8,2.4c1,0.8,1.7,1.6,2,2.6c0.3,1,0.5,2.1,0.5,3.6v5.2h-7.9v-5.2
							c0-1.1-0.2-1.8-0.5-2.3c-0.3-0.4-0.9-0.6-1.7-0.6h-1.9v-5.6h1.9c0.8,0,1.3-0.2,1.6-0.5c0.3-0.3,0.5-0.8,0.5-1.5
							c0-0.7-0.2-1.2-0.5-1.5c-0.3-0.3-1.1-0.5-2.1-0.5h-1.3V33.6L125.1,33.6z"/>
					</g>
				</g>
				<g>
					<g>
						<polygon class="st8" points="159.1,8.7 159.1,15.9 153.7,15.9 153.7,33.6 145.9,33.6 145.9,15.9 140.5,15.9 140.5,8.7 
							159.1,8.7 						"/>
					</g>
					<g>
						<polygon class="st9" points="159.1,8.7 159.1,15.9 153.7,15.9 153.7,33.6 145.9,33.6 145.9,15.9 140.5,15.9 140.5,8.7 
							159.1,8.7 						"/>
					</g>
				</g>
			</g>
			<g>
				<g>
					<g>
						<path class="st8" d="M60.4,8.4v7.4c-0.3-0.1-0.7-0.3-1.2-0.4c-0.4-0.1-0.8-0.2-1-0.2c-0.4,0-0.8,0.1-1.1,0.4
							c-0.3,0.3-0.4,0.6-0.4,0.9c0,0.6,0.2,1.2,0.5,1.9c0.3,0.7,0.7,1.5,1.1,2.3c0.4,0.8,0.7,1.6,1,2.4c0.3,0.8,0.5,1.5,0.5,2.2
							c0,2.8-0.8,5-2.3,6.4c-1.5,1.5-3.8,2.2-6.8,2.2c-0.3,0-0.6,0-1-0.1c-0.4-0.1-0.9-0.2-1.7-0.3v-7.4c0.3,0.1,0.8,0.3,1.3,0.3
							c0.5,0.1,0.9,0.1,1.2,0.1c0.5,0,0.8-0.1,1.1-0.4c0.3-0.3,0.4-0.6,0.4-0.9c0-0.4-0.2-1-0.5-1.6c-0.3-0.7-0.7-1.4-1-2.2
							c-0.4-0.8-0.7-1.6-1-2.5c-0.3-0.9-0.5-1.7-0.5-2.5c0-2.8,0.7-4.9,2.2-6.4C52.5,8.7,54.6,8,57.4,8C58.4,8,59.3,8.2,60.4,8.4
							L60.4,8.4z"/>
					</g>
					<g>
						<path class="st9" d="M60.4,8.4v7.4c-0.3-0.1-0.7-0.3-1.2-0.4c-0.4-0.1-0.8-0.2-1-0.2c-0.4,0-0.8,0.1-1.1,0.4
							c-0.3,0.3-0.4,0.6-0.4,0.9c0,0.6,0.2,1.2,0.5,1.9c0.3,0.7,0.7,1.5,1.1,2.3c0.4,0.8,0.7,1.6,1,2.4c0.3,0.8,0.5,1.5,0.5,2.2
							c0,2.8-0.8,5-2.3,6.4c-1.5,1.5-3.8,2.2-6.8,2.2c-0.3,0-0.6,0-1-0.1c-0.4-0.1-0.9-0.2-1.7-0.3v-7.4c0.3,0.1,0.8,0.3,1.3,0.3
							c0.5,0.1,0.9,0.1,1.2,0.1c0.5,0,0.8-0.1,1.1-0.4c0.3-0.3,0.4-0.6,0.4-0.9c0-0.4-0.2-1-0.5-1.6c-0.3-0.7-0.7-1.4-1-2.2
							c-0.4-0.8-0.7-1.6-1-2.5c-0.3-0.9-0.5-1.7-0.5-2.5c0-2.8,0.7-4.9,2.2-6.4C52.5,8.7,54.6,8,57.4,8C58.4,8,59.3,8.2,60.4,8.4
							L60.4,8.4z"/>
					</g>
				</g>
				<g>
					<g>
						<path class="st8" d="M72.1,26.6v-7.2c0.7,0,2.5-0.1,2.9-0.4c0.5-0.2,1-0.7,1-1.3c0-0.5-0.2-0.9-0.6-1.3
							c-0.4-0.3-1.1-0.5-1.9-0.5h-1.3v17.7h-7.8V8.7h9.3c1.5,0,2.9,0.2,4.2,0.6c1.3,0.4,2.4,0.9,3.3,1.7c0.9,0.8,1.7,1.7,2.2,2.8
							c0.5,1.1,0.8,2.3,0.8,3.8c0,3.1-0.9,5.4-2.8,6.9C79.5,25.8,75.5,26.6,72.1,26.6z"/>
					</g>
					<g>
						<path class="st9" d="M72.1,26.6v-7.2c0.7,0,2.5-0.1,2.9-0.4c0.5-0.2,1-0.7,1-1.3c0-0.5-0.2-0.9-0.6-1.3
							c-0.4-0.3-1.1-0.5-1.9-0.5h-1.3v17.7h-7.8V8.7h9.3c1.5,0,2.9,0.2,4.2,0.6c1.3,0.4,2.4,0.9,3.3,1.7c0.9,0.8,1.7,1.7,2.2,2.8
							c0.5,1.1,0.8,2.3,0.8,3.8c0,3.1-0.9,5.4-2.8,6.9C79.5,25.8,75.5,26.6,72.1,26.6z"/>
					</g>
				</g>
				<g>
					<g>
						<path class="st8" d="M100.3,34.2c-1.7,0-3.4-0.3-5-1c-1.6-0.7-3-1.6-4.2-2.8c-1.2-1.2-2.1-2.6-2.9-4.1
							c-0.7-1.6-1.1-3.3-1.1-5.1c0-1.8,0.4-3.5,1.1-5.1c0.7-1.6,1.7-3,2.9-4.1c1.2-1.2,2.6-2.1,4.2-2.8c1.6-0.7,3.2-1,5-1
							c1.8,0,3.5,0.3,5.1,1c1.6,0.7,3,1.6,4.2,2.8c1.2,1.2,2.1,2.6,2.8,4.2c0.7,1.6,1,3.3,1,5.2c0,1.8-0.3,3.4-1,5
							c-0.7,1.6-1.6,2.9-2.8,4.1c-1.2,1.2-2.6,2.1-4.2,2.8C103.8,33.9,102.1,34.2,100.3,34.2L100.3,34.2z M100.2,26.9
							c0.7,0,1.4-0.1,2-0.4c0.6-0.3,1.2-0.7,1.7-1.2c0.5-0.5,0.9-1.1,1.1-1.8c0.3-0.7,0.4-1.4,0.4-2.3c0-0.8-0.1-1.6-0.4-2.3
							c-0.3-0.7-0.6-1.3-1.1-1.8c-0.5-0.5-1-0.9-1.6-1.2c-0.6-0.3-1.3-0.4-2-0.4c-0.7,0-1.4,0.1-2,0.4c-0.6,0.3-1.2,0.7-1.6,1.2
							c-0.5,0.5-0.8,1.1-1.1,1.8c-0.3,0.7-0.4,1.5-0.4,2.3c0,0.8,0.1,1.6,0.4,2.3c0.3,0.7,0.6,1.3,1.1,1.8c0.5,0.5,1,0.9,1.6,1.2
							C98.9,26.7,99.5,26.9,100.2,26.9L100.2,26.9z"/>
					</g>
					<g>
						<path class="st9" d="M100.3,34.2c-1.7,0-3.4-0.3-5-1c-1.6-0.7-3-1.6-4.2-2.8c-1.2-1.2-2.1-2.6-2.9-4.1
							c-0.7-1.6-1.1-3.3-1.1-5.1c0-1.8,0.4-3.5,1.1-5.1c0.7-1.6,1.7-3,2.9-4.1c1.2-1.2,2.6-2.1,4.2-2.8c1.6-0.7,3.2-1,5-1
							c1.8,0,3.5,0.3,5.1,1c1.6,0.7,3,1.6,4.2,2.8c1.2,1.2,2.1,2.6,2.8,4.2c0.7,1.6,1,3.3,1,5.2c0,1.8-0.3,3.4-1,5
							c-0.7,1.6-1.6,2.9-2.8,4.1c-1.2,1.2-2.6,2.1-4.2,2.8C103.8,33.9,102.1,34.2,100.3,34.2L100.3,34.2z M100.2,26.9
							c0.7,0,1.4-0.1,2-0.4c0.6-0.3,1.2-0.7,1.7-1.2c0.5-0.5,0.9-1.1,1.1-1.8c0.3-0.7,0.4-1.4,0.4-2.3c0-0.8-0.1-1.6-0.4-2.3
							c-0.3-0.7-0.6-1.3-1.1-1.8c-0.5-0.5-1-0.9-1.6-1.2c-0.6-0.3-1.3-0.4-2-0.4c-0.7,0-1.4,0.1-2,0.4c-0.6,0.3-1.2,0.7-1.6,1.2
							c-0.5,0.5-0.8,1.1-1.1,1.8c-0.3,0.7-0.4,1.5-0.4,2.3c0,0.8,0.1,1.6,0.4,2.3c0.3,0.7,0.6,1.3,1.1,1.8c0.5,0.5,1,0.9,1.6,1.2
							C98.9,26.7,99.5,26.9,100.2,26.9L100.2,26.9z"/>
					</g>
				</g>
				<g>
					<g>
						<path class="st8" d="M125.1,33.6h-7.7V8.7h9.1c1.5,0,2.8,0.1,4.1,0.4c1.3,0.3,2.4,0.8,3.4,1.4c1,0.6,1.7,1.5,2.3,2.5
							c0.6,1,0.8,2.3,0.8,3.8c0,1-0.2,2-0.5,3c-0.3,1-0.9,1.8-1.8,2.4c1,0.8,1.7,1.6,2,2.6c0.3,1,0.5,2.1,0.5,3.6v5.2h-7.9v-5.2
							c0-1.1-0.2-1.8-0.5-2.3c-0.3-0.4-0.9-0.6-1.7-0.6h-1.9v-5.6h1.9c0.8,0,1.3-0.2,1.6-0.5c0.3-0.3,0.5-0.8,0.5-1.5
							c0-0.7-0.2-1.2-0.5-1.5c-0.3-0.3-1.1-0.5-2.1-0.5h-1.3V33.6L125.1,33.6z"/>
					</g>
					<g>
						<path class="st9" d="M125.1,33.6h-7.7V8.7h9.1c1.5,0,2.8,0.1,4.1,0.4c1.3,0.3,2.4,0.8,3.4,1.4c1,0.6,1.7,1.5,2.3,2.5
							c0.6,1,0.8,2.3,0.8,3.8c0,1-0.2,2-0.5,3c-0.3,1-0.9,1.8-1.8,2.4c1,0.8,1.7,1.6,2,2.6c0.3,1,0.5,2.1,0.5,3.6v5.2h-7.9v-5.2
							c0-1.1-0.2-1.8-0.5-2.3c-0.3-0.4-0.9-0.6-1.7-0.6h-1.9v-5.6h1.9c0.8,0,1.3-0.2,1.6-0.5c0.3-0.3,0.5-0.8,0.5-1.5
							c0-0.7-0.2-1.2-0.5-1.5c-0.3-0.3-1.1-0.5-2.1-0.5h-1.3V33.6L125.1,33.6z"/>
					</g>
				</g>
				<g>
					<g>
						<polygon class="st8" points="159.1,8.7 159.1,15.9 153.7,15.9 153.7,33.6 145.9,33.6 145.9,15.9 140.5,15.9 140.5,8.7 
							159.1,8.7 						"/>
					</g>
					<g>
						<polygon class="st9" points="159.1,8.7 159.1,15.9 153.7,15.9 153.7,33.6 145.9,33.6 145.9,15.9 140.5,15.9 140.5,8.7 
							159.1,8.7 						"/>
					</g>
				</g>
			</g>
			<g>
				<g>
					<g>
						<path class="st6" d="M60.4,8.4v7.4c-0.3-0.1-0.7-0.3-1.2-0.4c-0.4-0.1-0.8-0.2-1-0.2c-0.4,0-0.8,0.1-1.1,0.4
							c-0.3,0.3-0.4,0.6-0.4,0.9c0,0.6,0.2,1.2,0.5,1.9c0.3,0.7,0.7,1.5,1.1,2.3c0.4,0.8,0.7,1.6,1,2.4c0.3,0.8,0.5,1.5,0.5,2.2
							c0,2.8-0.8,5-2.3,6.4c-1.5,1.5-3.8,2.2-6.8,2.2c-0.3,0-0.6,0-1-0.1c-0.4-0.1-0.9-0.2-1.7-0.3v-7.4c0.3,0.1,0.8,0.3,1.3,0.3
							c0.5,0.1,0.9,0.1,1.2,0.1c0.5,0,0.8-0.1,1.1-0.4c0.3-0.3,0.4-0.6,0.4-0.9c0-0.4-0.2-1-0.5-1.6c-0.3-0.7-0.7-1.4-1-2.2
							c-0.4-0.8-0.7-1.6-1-2.5c-0.3-0.9-0.5-1.7-0.5-2.5c0-2.8,0.7-4.9,2.2-6.4C52.5,8.7,54.6,8,57.4,8C58.4,8,59.3,8.2,60.4,8.4
							L60.4,8.4z"/>
					</g>
					<g>
						<path class="st6" d="M60.4,8.4v7.4c-0.3-0.1-0.7-0.3-1.2-0.4c-0.4-0.1-0.8-0.2-1-0.2c-0.4,0-0.8,0.1-1.1,0.4
							c-0.3,0.3-0.4,0.6-0.4,0.9c0,0.6,0.2,1.2,0.5,1.9c0.3,0.7,0.7,1.5,1.1,2.3c0.4,0.8,0.7,1.6,1,2.4c0.3,0.8,0.5,1.5,0.5,2.2
							c0,2.8-0.8,5-2.3,6.4c-1.5,1.5-3.8,2.2-6.8,2.2c-0.3,0-0.6,0-1-0.1c-0.4-0.1-0.9-0.2-1.7-0.3v-7.4c0.3,0.1,0.8,0.3,1.3,0.3
							c0.5,0.1,0.9,0.1,1.2,0.1c0.5,0,0.8-0.1,1.1-0.4c0.3-0.3,0.4-0.6,0.4-0.9c0-0.4-0.2-1-0.5-1.6c-0.3-0.7-0.7-1.4-1-2.2
							c-0.4-0.8-0.7-1.6-1-2.5c-0.3-0.9-0.5-1.7-0.5-2.5c0-2.8,0.7-4.9,2.2-6.4C52.5,8.7,54.6,8,57.4,8C58.4,8,59.3,8.2,60.4,8.4
							L60.4,8.4z"/>
					</g>
					<g>
						<path class="st6" d="M60.4,8.4v7.4c-0.3-0.1-0.7-0.3-1.2-0.4c-0.4-0.1-0.8-0.2-1-0.2c-0.4,0-0.8,0.1-1.1,0.4
							c-0.3,0.3-0.4,0.6-0.4,0.9c0,0.6,0.2,1.2,0.5,1.9c0.3,0.7,0.7,1.5,1.1,2.3c0.4,0.8,0.7,1.6,1,2.4c0.3,0.8,0.5,1.5,0.5,2.2
							c0,2.8-0.8,5-2.3,6.4c-1.5,1.5-3.8,2.2-6.8,2.2c-0.3,0-0.6,0-1-0.1c-0.4-0.1-0.9-0.2-1.7-0.3v-7.4c0.3,0.1,0.8,0.3,1.3,0.3
							c0.5,0.1,0.9,0.1,1.2,0.1c0.5,0,0.8-0.1,1.1-0.4c0.3-0.3,0.4-0.6,0.4-0.9c0-0.4-0.2-1-0.5-1.6c-0.3-0.7-0.7-1.4-1-2.2
							c-0.4-0.8-0.7-1.6-1-2.5c-0.3-0.9-0.5-1.7-0.5-2.5c0-2.8,0.7-4.9,2.2-6.4C52.5,8.7,54.6,8,57.4,8C58.4,8,59.3,8.2,60.4,8.4
							L60.4,8.4z"/>
					</g>
				</g>
				<g>
					<g>
						<path class="st6" d="M72.1,26.6v-7.2c0.7,0,2.5-0.1,2.9-0.4c0.5-0.2,1-0.7,1-1.3c0-0.5-0.2-0.9-0.6-1.3
							c-0.4-0.3-1.1-0.5-1.9-0.5h-1.3v17.7h-7.8V8.7h9.3c1.5,0,2.9,0.2,4.2,0.6c1.3,0.4,2.4,0.9,3.3,1.7c0.9,0.8,1.7,1.7,2.2,2.8
							c0.5,1.1,0.8,2.3,0.8,3.8c0,3.1-0.9,5.4-2.8,6.9C79.5,25.8,75.5,26.6,72.1,26.6z"/>
					</g>
					<g>
						<path class="st6" d="M72.1,26.6v-7.2c0.7,0,2.5-0.1,2.9-0.4c0.5-0.2,1-0.7,1-1.3c0-0.5-0.2-0.9-0.6-1.3
							c-0.4-0.3-1.1-0.5-1.9-0.5h-1.3v17.7h-7.8V8.7h9.3c1.5,0,2.9,0.2,4.2,0.6c1.3,0.4,2.4,0.9,3.3,1.7c0.9,0.8,1.7,1.7,2.2,2.8
							c0.5,1.1,0.8,2.3,0.8,3.8c0,3.1-0.9,5.4-2.8,6.9C79.5,25.8,75.5,26.6,72.1,26.6z"/>
					</g>
					<g>
						<path class="st6" d="M72.1,26.6v-7.2c0.7,0,2.5-0.1,2.9-0.4c0.5-0.2,1-0.7,1-1.3c0-0.5-0.2-0.9-0.6-1.3
							c-0.4-0.3-1.1-0.5-1.9-0.5h-1.3v17.7h-7.8V8.7h9.3c1.5,0,2.9,0.2,4.2,0.6c1.3,0.4,2.4,0.9,3.3,1.7c0.9,0.8,1.7,1.7,2.2,2.8
							c0.5,1.1,0.8,2.3,0.8,3.8c0,3.1-0.9,5.4-2.8,6.9C79.5,25.8,75.5,26.6,72.1,26.6z"/>
					</g>
				</g>
				<g>
					<g>
						<path class="st6" d="M100.3,34.2c-1.7,0-3.4-0.3-5-1c-1.6-0.7-3-1.6-4.2-2.8c-1.2-1.2-2.1-2.6-2.9-4.1
							c-0.7-1.6-1.1-3.3-1.1-5.1c0-1.8,0.4-3.5,1.1-5.1c0.7-1.6,1.7-3,2.9-4.1c1.2-1.2,2.6-2.1,4.2-2.8c1.6-0.7,3.2-1,5-1
							c1.8,0,3.5,0.3,5.1,1c1.6,0.7,3,1.6,4.2,2.8c1.2,1.2,2.1,2.6,2.8,4.2c0.7,1.6,1,3.3,1,5.2c0,1.8-0.3,3.4-1,5
							c-0.7,1.6-1.6,2.9-2.8,4.1c-1.2,1.2-2.6,2.1-4.2,2.8C103.8,33.9,102.1,34.2,100.3,34.2L100.3,34.2z M100.2,26.9
							c0.7,0,1.4-0.1,2-0.4c0.6-0.3,1.2-0.7,1.7-1.2c0.5-0.5,0.9-1.1,1.1-1.8c0.3-0.7,0.4-1.4,0.4-2.3c0-0.8-0.1-1.6-0.4-2.3
							c-0.3-0.7-0.6-1.3-1.1-1.8c-0.5-0.5-1-0.9-1.6-1.2c-0.6-0.3-1.3-0.4-2-0.4c-0.7,0-1.4,0.1-2,0.4c-0.6,0.3-1.2,0.7-1.6,1.2
							c-0.5,0.5-0.8,1.1-1.1,1.8c-0.3,0.7-0.4,1.5-0.4,2.3c0,0.8,0.1,1.6,0.4,2.3c0.3,0.7,0.6,1.3,1.1,1.8c0.5,0.5,1,0.9,1.6,1.2
							C98.9,26.7,99.5,26.9,100.2,26.9L100.2,26.9z"/>
					</g>
					<g>
						<path class="st6" d="M100.3,34.2c-1.7,0-3.4-0.3-5-1c-1.6-0.7-3-1.6-4.2-2.8c-1.2-1.2-2.1-2.6-2.9-4.1
							c-0.7-1.6-1.1-3.3-1.1-5.1c0-1.8,0.4-3.5,1.1-5.1c0.7-1.6,1.7-3,2.9-4.1c1.2-1.2,2.6-2.1,4.2-2.8c1.6-0.7,3.2-1,5-1
							c1.8,0,3.5,0.3,5.1,1c1.6,0.7,3,1.6,4.2,2.8c1.2,1.2,2.1,2.6,2.8,4.2c0.7,1.6,1,3.3,1,5.2c0,1.8-0.3,3.4-1,5
							c-0.7,1.6-1.6,2.9-2.8,4.1c-1.2,1.2-2.6,2.1-4.2,2.8C103.8,33.9,102.1,34.2,100.3,34.2L100.3,34.2z M100.2,26.9
							c0.7,0,1.4-0.1,2-0.4c0.6-0.3,1.2-0.7,1.7-1.2c0.5-0.5,0.9-1.1,1.1-1.8c0.3-0.7,0.4-1.4,0.4-2.3c0-0.8-0.1-1.6-0.4-2.3
							c-0.3-0.7-0.6-1.3-1.1-1.8c-0.5-0.5-1-0.9-1.6-1.2c-0.6-0.3-1.3-0.4-2-0.4c-0.7,0-1.4,0.1-2,0.4c-0.6,0.3-1.2,0.7-1.6,1.2
							c-0.5,0.5-0.8,1.1-1.1,1.8c-0.3,0.7-0.4,1.5-0.4,2.3c0,0.8,0.1,1.6,0.4,2.3c0.3,0.7,0.6,1.3,1.1,1.8c0.5,0.5,1,0.9,1.6,1.2
							C98.9,26.7,99.5,26.9,100.2,26.9L100.2,26.9z"/>
					</g>
					<g>
						<path class="st6" d="M100.3,34.2c-1.7,0-3.4-0.3-5-1c-1.6-0.7-3-1.6-4.2-2.8c-1.2-1.2-2.1-2.6-2.9-4.1
							c-0.7-1.6-1.1-3.3-1.1-5.1c0-1.8,0.4-3.5,1.1-5.1c0.7-1.6,1.7-3,2.9-4.1c1.2-1.2,2.6-2.1,4.2-2.8c1.6-0.7,3.2-1,5-1
							c1.8,0,3.5,0.3,5.1,1c1.6,0.7,3,1.6,4.2,2.8c1.2,1.2,2.1,2.6,2.8,4.2c0.7,1.6,1,3.3,1,5.2c0,1.8-0.3,3.4-1,5
							c-0.7,1.6-1.6,2.9-2.8,4.1c-1.2,1.2-2.6,2.1-4.2,2.8C103.8,33.9,102.1,34.2,100.3,34.2L100.3,34.2z M100.2,26.9
							c0.7,0,1.4-0.1,2-0.4c0.6-0.3,1.2-0.7,1.7-1.2c0.5-0.5,0.9-1.1,1.1-1.8c0.3-0.7,0.4-1.4,0.4-2.3c0-0.8-0.1-1.6-0.4-2.3
							c-0.3-0.7-0.6-1.3-1.1-1.8c-0.5-0.5-1-0.9-1.6-1.2c-0.6-0.3-1.3-0.4-2-0.4c-0.7,0-1.4,0.1-2,0.4c-0.6,0.3-1.2,0.7-1.6,1.2
							c-0.5,0.5-0.8,1.1-1.1,1.8c-0.3,0.7-0.4,1.5-0.4,2.3c0,0.8,0.1,1.6,0.4,2.3c0.3,0.7,0.6,1.3,1.1,1.8c0.5,0.5,1,0.9,1.6,1.2
							C98.9,26.7,99.5,26.9,100.2,26.9L100.2,26.9z"/>
					</g>
				</g>
				<g>
					<g>
						<path class="st6" d="M125.1,33.6h-7.7V8.7h9.1c1.5,0,2.8,0.1,4.1,0.4c1.3,0.3,2.4,0.8,3.4,1.4c1,0.6,1.7,1.5,2.3,2.5
							c0.6,1,0.8,2.3,0.8,3.8c0,1-0.2,2-0.5,3c-0.3,1-0.9,1.8-1.8,2.4c1,0.8,1.7,1.6,2,2.6c0.3,1,0.5,2.1,0.5,3.6v5.2h-7.9v-5.2
							c0-1.1-0.2-1.8-0.5-2.3c-0.3-0.4-0.9-0.6-1.7-0.6h-1.9v-5.6h1.9c0.8,0,1.3-0.2,1.6-0.5c0.3-0.3,0.5-0.8,0.5-1.5
							c0-0.7-0.2-1.2-0.5-1.5c-0.3-0.3-1.1-0.5-2.1-0.5h-1.3V33.6L125.1,33.6z"/>
					</g>
					<g>
						<path class="st6" d="M125.1,33.6h-7.7V8.7h9.1c1.5,0,2.8,0.1,4.1,0.4c1.3,0.3,2.4,0.8,3.4,1.4c1,0.6,1.7,1.5,2.3,2.5
							c0.6,1,0.8,2.3,0.8,3.8c0,1-0.2,2-0.5,3c-0.3,1-0.9,1.8-1.8,2.4c1,0.8,1.7,1.6,2,2.6c0.3,1,0.5,2.1,0.5,3.6v5.2h-7.9v-5.2
							c0-1.1-0.2-1.8-0.5-2.3c-0.3-0.4-0.9-0.6-1.7-0.6h-1.9v-5.6h1.9c0.8,0,1.3-0.2,1.6-0.5c0.3-0.3,0.5-0.8,0.5-1.5
							c0-0.7-0.2-1.2-0.5-1.5c-0.3-0.3-1.1-0.5-2.1-0.5h-1.3V33.6L125.1,33.6z"/>
					</g>
					<g>
						<path class="st6" d="M125.1,33.6h-7.7V8.7h9.1c1.5,0,2.8,0.1,4.1,0.4c1.3,0.3,2.4,0.8,3.4,1.4c1,0.6,1.7,1.5,2.3,2.5
							c0.6,1,0.8,2.3,0.8,3.8c0,1-0.2,2-0.5,3c-0.3,1-0.9,1.8-1.8,2.4c1,0.8,1.7,1.6,2,2.6c0.3,1,0.5,2.1,0.5,3.6v5.2h-7.9v-5.2
							c0-1.1-0.2-1.8-0.5-2.3c-0.3-0.4-0.9-0.6-1.7-0.6h-1.9v-5.6h1.9c0.8,0,1.3-0.2,1.6-0.5c0.3-0.3,0.5-0.8,0.5-1.5
							c0-0.7-0.2-1.2-0.5-1.5c-0.3-0.3-1.1-0.5-2.1-0.5h-1.3V33.6L125.1,33.6z"/>
					</g>
				</g>
				<g>
					<g>
						<polygon class="st6" points="159.1,8.7 159.1,15.9 153.7,15.9 153.7,33.6 145.9,33.6 145.9,15.9 140.5,15.9 140.5,8.7 
							159.1,8.7 						"/>
					</g>
					<g>
						<polygon class="st6" points="159.1,8.7 159.1,15.9 153.7,15.9 153.7,33.6 145.9,33.6 145.9,15.9 140.5,15.9 140.5,8.7 
							159.1,8.7 						"/>
					</g>
					<g>
						<polygon class="st6" points="159.1,8.7 159.1,15.9 153.7,15.9 153.7,33.6 145.9,33.6 145.9,15.9 140.5,15.9 140.5,8.7 
							159.1,8.7 						"/>
					</g>
				</g>
			</g>
		</g>
	</g>
	<g>
		<g>
			<defs>
				<path id="SVGID_1_" d="M212.2,1.4c-5.8,0-10.5,4.7-10.5,10.5l0,20.5c0,2.2,1.8,4.1,4.1,4.1c2.2,0,4.1-1.8,4.1-4.1l0-20.5
					c0-1.3,1.1-2.4,2.4-2.4c1.3,0,2.4,1.1,2.4,2.4c0,2.2,1.8,4.1,4.1,4.1c2.2,0,4.1-1.8,4.1-4.1C222.6,6.1,217.9,1.4,212.2,1.4z"/>
			</defs>
			<clipPath id="SVGID_2_">
				<use xlink:href="#SVGID_1_"  style="overflow:visible;"/>
			</clipPath>
			<g class="st10">
				<g>
					
						<rect x="203.2" y="29.3" transform="matrix(1.278750e-03 -1 1 1.278750e-03 171.3346 239.7374)" class="st11" width="4.9" height="9.5"/>
					
						<rect x="203.2" y="24.4" transform="matrix(1.273592e-03 -1 1 1.273592e-03 176.2643 234.8277)" class="st12" width="4.9" height="9.5"/>
				</g>
				<g>
					
						<rect x="203.2" y="19.5" transform="matrix(1.278750e-03 -1 1 1.278750e-03 181.192 229.9177)" class="st11" width="4.9" height="9.5"/>
					
						<rect x="203.2" y="14.6" transform="matrix(1.278750e-03 -1 1 1.278750e-03 186.1206 225.0079)" class="st12" width="4.9" height="9.5"/>
				</g>
				<g>
					
						<rect x="203.3" y="9.6" transform="matrix(1.273592e-03 -1 1 1.273592e-03 191.0504 220.0982)" class="st11" width="4.9" height="9.5"/>
					<path class="st12" d="M210.9,10.8c-0.1,0.2-0.3,0.3-0.3,0.5c0,0.1-0.1,0.2-0.1,0.3c0,0.1,0,0.1,0,0.2c0,0,0,0.1,0,0.1l0,0l0,0
						l0,0l0,0l-9.5,0l0-0.1l0-0.1l0-0.3l0-0.5c0-0.4,0.1-0.7,0.1-1.1c0.1-0.7,0.3-1.4,0.6-2.1c0.5-1.3,1.3-2.6,2.3-3.6L210.9,10.8z"
						/>
				</g>
				<g>
					<path class="st11" d="M212.1,10.2c-0.4,0-0.8,0.2-1.1,0.5l-6.9-6.6c1-1,2.2-1.9,3.5-2.5c1.3-0.6,2.7-0.9,4.1-1L212.1,10.2z"/>
					<path class="st12" d="M213.2,10.7c-0.3-0.3-0.7-0.4-1.2-0.4l-0.4-9.5c1.4-0.1,2.9,0.1,4.2,0.6c1.4,0.5,2.6,1.2,3.7,2.2
						L213.2,10.7z"/>
				</g>
				<g>
					<path class="st11" d="M213.8,11.8c0-0.4-0.2-0.8-0.6-1.1l6.3-7.1c1.1,0.9,2,2.1,2.6,3.4c0.6,1.3,1,2.7,1.2,4.1L213.8,11.8z"/>
					<path class="st12" d="M213.8,16.3l0-2.5l0-1.2l0-0.6l0-0.1l0,0l0,0c0,0,0-0.1,0-0.1l9.5-0.8l0,0.5l0,0.3l0,0.1l0,0.1l0,0.6
						l0,1.2l0,2.5L213.8,16.3z"/>
				</g>
			</g>
		</g>
		<path class="st13" d="M218.6,11.4c-0.1-1.7-0.9-3.2-2.2-4.3c-1.1-1-2.6-1.6-4.2-1.6c-0.1,0-0.2,0-0.3,0c-1.7,0.1-3.3,0.8-4.4,2
			c-1.1,1.2-1.8,2.7-1.8,4.4l0,0l0,4.9l0,4.9l0,4.9l0,4.9l0,4.8c2.2,0,4.1-1.8,4.1-4.1l0-0.8l0-4.9l0-4.9l0-4.9l0-4.9l0,0
			c0-0.6,0.3-1.2,0.7-1.6c0.4-0.4,1-0.7,1.6-0.7c0,0,0.1,0,0.1,0c0.6,0,1.1,0.2,1.6,0.6c0.4,0.4,0.7,0.9,0.8,1.6c0,0.1,0,0.1,0,0.2
			c0,2.2,1.8,4.1,4.1,4.1c0,0,0,0,0,0l0-4.1C218.6,11.7,218.6,11.6,218.6,11.4z"/>
	</g>
	<g>
		<g>
			<g>
				<g>
					<path class="st14" d="M204.7,26.9c-0.4-0.2-0.8-0.4-1.1-0.7c-0.1-0.1-0.2-0.3-0.3-0.4c-0.1-0.1-0.1-0.2-0.2-0.3
						c0,0,0-0.1,0-0.1c-0.1-0.2-0.1-0.4-0.2-0.6c0,0,0,0,0-0.1c-0.2,0-2.8,0.3-3.9,0.5c-4.4,0.9-8,2.9-8,2.9l3,0.9l-0.7,2.5
						c2.1-2.6,7.4-3.7,10.6-4.4c0,0,0.5-0.1,1-0.1C204.8,27,204.7,26.9,204.7,26.9z"/>
					<path class="st15" d="M203.9,27.1c0,0,0.5-0.1,1-0.1c0,0-0.1,0-0.1,0c-0.4-0.2-0.8-0.4-1.1-0.7c-0.1-0.1-0.2-0.3-0.3-0.4
						c-0.1-0.1-0.1-0.2-0.2-0.3c0,0,0-0.1,0-0.1c-0.1-0.2-0.1-0.4-0.2-0.6c0,0,0,0,0-0.1c-0.2,0-2.8,0.3-3.9,0.5
						c-0.4,0.1-0.8,0.2-1.1,0.3c0.8,0,1.6,0.1,2.4,0.5c1,0.5,0.4,1.5-0.6,2.2C201.2,27.7,202.7,27.4,203.9,27.1z"/>
					<path class="st16" d="M202.4,25.1c0.8,0.3,0,0.9,0.3,1.4c0.3,0.4,1,0.2,1.5,0.5c0.2,0,0.4-0.1,0.6-0.1c0,0-0.1,0-0.1,0
						c-0.4-0.2-0.8-0.4-1.1-0.7c-0.1-0.1-0.2-0.3-0.3-0.4c-0.1-0.1-0.1-0.2-0.2-0.3c0,0,0-0.1,0-0.1c-0.1-0.2-0.1-0.4-0.2-0.6
						c0,0,0,0,0-0.1c-0.1,0-1,0.1-1.9,0.2C201.5,24.9,202,25,202.4,25.1z"/>
					<path class="st15" d="M194.4,28.6c0,0,3.4-1.7,7.7-2.4C202.1,26.2,197.7,26.3,194.4,28.6z"/>
				</g>
				<g>
					<path class="st14" d="M208.8,26.7l-0.4-0.3c0,0,0,0,0,0c0,0-0.1,0.1-0.1,0.1c-0.1,0.1-0.2,0.2-0.3,0.3
						c-0.1,0.1-0.1,0.1-0.2,0.1c-0.1,0-0.1,0.1-0.2,0.1c-0.2,0.1-0.4,0.1-0.6,0.2c-0.4,0.1-0.8,0.1-1.3,0c0,0,0,0-0.1,0l0.7,0.6
						c2.3,2.3,6.1,6.1,6.4,9.5l0.8-2.5l3,0.8C216.3,35.7,213.4,30,208.8,26.7z"/>
					<path class="st15" d="M209.8,28.1c0.2-0.1,0.4-0.1,0.7,0c-0.6-0.5-1.1-1-1.7-1.4l-0.4-0.3c0,0,0,0,0,0c0,0-0.1,0.1-0.1,0.1
						c-0.1,0.1-0.2,0.2-0.3,0.3c-0.1,0.1-0.1,0.1-0.2,0.1c-0.1,0-0.1,0.1-0.2,0.1c-0.2,0.1-0.4,0.1-0.6,0.2c-0.4,0.1-0.8,0.1-1.3,0
						c0,0,0,0-0.1,0l0.7,0.6c1,1,2.3,2.3,3.5,3.8C208.9,30,208.9,28.4,209.8,28.1z"/>
					<path class="st16" d="M208.3,26.3C208.3,26.3,208.3,26.4,208.3,26.3c0,0-0.1,0.1-0.1,0.1c-0.1,0.1-0.2,0.2-0.3,0.3
						c-0.1,0.1-0.1,0.1-0.2,0.1c-0.1,0-0.1,0.1-0.2,0.1c-0.2,0.1-0.4,0.1-0.6,0.2c-0.4,0.1-0.8,0.1-1.3,0c0,0,0,0-0.1,0l0.7,0.6
						c0.3,0.3,0.7,0.7,1.1,1.1c-0.2-0.5-0.2-0.9,0.1-1.1c0.7-0.3,1.2,0.3,1.6-0.1c0.3-0.3,0.1-0.6,0.1-0.8c-0.1-0.1-0.2-0.2-0.4-0.3
						L208.3,26.3z"/>
					<path class="st15" d="M209.1,28.4c0,0,2.6,2.7,3.9,5.6C213,34,211.8,30.2,209.1,28.4z"/>
				</g>
			</g>
			<g>
				<g>
					<path class="st14" d="M209,25c0,0.1-0.1,0.2-0.1,0.4c0,0.1,0,0.1-0.1,0.2c0,0.1-0.1,0.1-0.1,0.2c0,0,0,0.1-0.1,0.1
						c0,0.1-0.1,0.2-0.2,0.3c0,0.1-0.1,0.1-0.1,0.2c0,0,0,0,0,0c0,0-0.1,0.1-0.1,0.1c-0.1,0.1-0.2,0.2-0.3,0.3
						c-0.1,0.1-0.1,0.1-0.2,0.1c-0.1,0-0.1,0.1-0.2,0.1c-0.2,0.1-0.4,0.1-0.6,0.2c-0.4,0.1-0.8,0.1-1.3,0c-0.1,0-0.3-0.1-0.5-0.1
						c-0.2,0-0.3-0.1-0.4-0.2c-0.4-0.2-0.8-0.4-1.1-0.7c-0.1-0.1-0.2-0.3-0.3-0.4c-0.1-0.1-0.1-0.2-0.2-0.3c0,0,0-0.1,0-0.1
						c-0.1-0.2-0.1-0.4-0.2-0.6c0-0.1,0-0.2,0-0.3c0-0.1,0-0.2,0-0.3c0-0.3,0.1-0.6,0.1-1c0-0.1,0-0.2,0.1-0.2
						c0-0.1,0.1-0.2,0.1-0.3c0.2-0.5,0.5-0.9,0.8-1.2c0.1-0.1,0.3-0.2,0.4-0.3c0.6-0.3,1.4-0.4,2.4-0.1c1,0.3,1.6,0.8,1.9,1.4
						c0.1,0.2,0.2,0.3,0.2,0.5c0,0.1,0.1,0.3,0.1,0.4c0,0.1,0,0.2,0,0.3c0,0,0,0.1,0,0.1c0,0.1,0,0.2,0,0.3c0,0,0,0,0,0
						c0,0.1,0,0.2,0,0.2c0,0,0,0.1,0,0.1c0,0.1,0,0.2,0,0.2C209,24.8,209,24.9,209,25z"/>
					<path class="st15" d="M208,26.4c-0.4,0.1-0.8,0.1-1.3,0c-0.1,0-0.3-0.1-0.4-0.1c-0.1,0-0.3-0.1-0.4-0.1c-0.4-0.2-0.8-0.4-1-0.7
						c-0.1-0.1-0.2-0.3-0.3-0.4c-0.1-0.1-0.1-0.2-0.2-0.3c0,0,0-0.1,0-0.1c-0.1-0.2-0.1-0.4-0.1-0.6c0-0.1,0-0.2,0-0.2
						c0-0.1,0-0.2,0-0.3c0-0.3,0.1-0.6,0.1-0.9c0-0.1,0-0.1,0.1-0.2c0-0.1,0.1-0.2,0.1-0.2c0.2-0.4,0.4-0.8,0.7-1.1
						c-0.3,0-0.5,0.1-0.7,0.2c-0.2,0.1-0.3,0.2-0.4,0.3c-0.4,0.3-0.6,0.7-0.8,1.2c0,0.1-0.1,0.2-0.1,0.3c0,0.1,0,0.1-0.1,0.2
						c-0.1,0.3-0.1,0.6-0.1,1c0,0.1,0,0.2,0,0.3c0,0.1,0,0.2,0,0.3c0,0.2,0.1,0.4,0.2,0.6c0,0,0,0.1,0,0.1c0,0.1,0.1,0.2,0.2,0.3
						c0.1,0.2,0.2,0.3,0.3,0.4c0.3,0.3,0.6,0.6,1.1,0.7c0.1,0.1,0.3,0.1,0.4,0.2c0.2,0,0.3,0.1,0.5,0.1c0.5,0.1,1,0.1,1.3,0
						c0.2,0,0.4-0.1,0.6-0.2c0.1,0,0.2-0.1,0.2-0.1c0.1,0,0.1-0.1,0.2-0.1c0.1-0.1,0.2-0.2,0.3-0.3c0,0,0.1-0.1,0.1-0.1c0,0,0,0,0,0
						c0,0,0,0,0.1-0.1C208.3,26.3,208.1,26.3,208,26.4z"/>
					<path class="st16" d="M208.2,26.4c-0.1,0-0.1,0.1-0.2,0.1c-0.2,0.1-0.4,0.1-0.6,0.2c-0.4,0.1-0.8,0.1-1.3,0
						c-0.1,0-0.3-0.1-0.5-0.1c-0.2,0-0.3-0.1-0.4-0.2c-0.4-0.2-0.8-0.4-1.1-0.7c-0.1-0.1-0.2-0.3-0.3-0.4c-0.1-0.1-0.1-0.2-0.2-0.3
						c0,0,0-0.1,0-0.1c-0.1-0.2-0.1-0.4-0.2-0.6c0-0.1,0-0.2,0-0.3c0-0.1,0-0.2,0-0.3c0-0.3,0.1-0.6,0.1-1c0-0.1,0-0.2,0.1-0.2
						c0-0.1,0.1-0.2,0.1-0.3c0.1-0.3,0.3-0.6,0.5-0.9c-0.1,0-0.1,0.1-0.2,0.1c-0.4,0.3-0.6,0.7-0.8,1.2c0,0.1-0.1,0.2-0.1,0.3
						c0,0.1,0,0.1-0.1,0.2c-0.1,0.3-0.1,0.6-0.1,1c0,0.1,0,0.2,0,0.3c0,0.1,0,0.2,0,0.3c0,0.2,0.1,0.4,0.2,0.6c0,0,0,0.1,0,0.1
						c0,0.1,0.1,0.2,0.2,0.3c0.1,0.2,0.2,0.3,0.3,0.4c0.3,0.3,0.6,0.6,1.1,0.7c0.1,0.1,0.3,0.1,0.4,0.2c0.2,0,0.3,0.1,0.5,0.1
						c0.5,0.1,1,0.1,1.3,0c0.2,0,0.4-0.1,0.6-0.2c0.1,0,0.2-0.1,0.2-0.1c0.1,0,0.1-0.1,0.2-0.1C208,26.7,208.1,26.6,208.2,26.4
						c0.1,0,0.1,0,0.1-0.1c0,0,0,0,0,0c0,0,0,0,0,0C208.3,26.3,208.2,26.4,208.2,26.4z"/>
				</g>
				<path class="st17" d="M207.2,23.4c0.2,0.6,0.7,1,1,0.9c0.3-0.1,0.3-0.7,0.1-1.3c-0.2-0.6-0.7-1-1-0.9
					C207,22.1,207,22.7,207.2,23.4z"/>
			</g>
		</g>
		<g>
			<g>
				<g>
					<g>
						<path class="st14" d="M202.9,24.7c0-0.1,0-0.2,0-0.3c0-0.1,0-0.2,0-0.3c0-0.3,0.1-0.6,0.1-1c0-0.1,0-0.2,0.1-0.2
							c0-0.1,0.1-0.2,0.1-0.3c0.2-0.5,0.5-0.9,0.8-1.2c0.1-0.1,0.3-0.2,0.4-0.3c0.2-0.1,0.4-0.2,0.6-0.2l-0.2-0.5
							c-0.4-2.3-1.2-4.9-2.3-6.8c-1.2-2-4.3-1.2-6,1.2l-2.9,3.9c-1.7,2.4-1.4,4.6,1.3,5.2c1.2,0.3,2.8,0.5,4.3,0.6
							c1.1,0.1,2.1,0.1,3.1,0.2L202.9,24.7C202.9,24.7,202.9,24.7,202.9,24.7z"/>
						<path class="st15" d="M202.6,13.6c-1.2-2-4.3-1.2-6,1.2l-2.9,3.9c-1.7,2.4-1.4,4.6,1.3,5.2c1.2,0.3,2.7,0.5,4.2,0.6
							c-2.8-0.6-3.9-1.7-3.2-2.8c0.8-1.4,4.1-0.6,4.7-2.4c0.6-1.8-1.2-3.3,1.4-3.6c0.7-0.1,1.3,0.1,1.8,0.3
							C203.4,15.1,203,14.3,202.6,13.6z"/>
						<path class="st16" d="M201.4,12.6c-1.5-0.5-3.6,0.4-4.9,2.1l-2.9,3.9c-1.7,2.3-1.4,4.4,1.1,5.2c-1-0.8-0.2-2.1,0.5-3.3
							c1-1.6-0.8-1.5-0.3-2.5c0.5-1,3.9-1.5,4.4-2.8c0.4-1.2-0.6-1.4,0.5-2.2C200.2,12.7,200.8,12.6,201.4,12.6z"/>
					</g>
					<g>
						<path class="st15" d="M200.8,16.8c0,0,1.7,1.3,2.8,4.5C203.6,21.3,203.4,17.8,200.8,16.8z"/>
						<path class="st15" d="M196.8,20.2c0,0,3,0,6.3,2C203.1,22.3,201.2,19.6,196.8,20.2z"/>
					</g>
				</g>
				<g>
					<g>
						<path class="st14" d="M219.5,23.9l-1.1-4.7c-0.7-2.8-3.2-4.8-5.1-3.4c-1.8,1.3-3.6,3.5-4.9,5.5l-0.4,0.4
							c0.3,0.3,0.6,0.5,0.8,0.9c0.1,0.2,0.2,0.3,0.2,0.5c0,0.1,0.1,0.3,0.1,0.4c0,0.1,0,0.2,0,0.3c0,0,0,0.1,0,0.1
							c0,0.1,0,0.2,0,0.3c0,0,0,0,0,0c0,0.1,0,0.2,0,0.2c0,0,0,0.1,0,0.1c0,0.1,0,0.2,0,0.3c0,0.1,0,0.1-0.1,0.2
							c0,0.1-0.1,0.2-0.1,0.4c0,0.1,0,0.1-0.1,0.2c0,0.1-0.1,0.1-0.1,0.2c0,0,0,0.1-0.1,0.1l0.6,0.3c0.9,0.3,1.8,0.7,2.8,1
							c1.4,0.5,2.9,0.9,4.2,1.1C219,28.7,220.2,26.8,219.5,23.9z"/>
						<path class="st15" d="M215.6,28.1c-3.7-1.1-2.9-3.6-3-5c0-1.6-2.1-2.1-2.2-3.7c0-0.4,0.1-0.7,0.2-1.1c-0.8,1-1.6,2-2.3,3
							l-0.4,0.4c0.3,0.3,0.6,0.5,0.8,0.9c0.1,0.2,0.2,0.3,0.2,0.5c0,0.1,0.1,0.3,0.1,0.4c0,0.1,0,0.2,0,0.3c0,0,0,0.1,0,0.1
							c0,0.1,0,0.2,0,0.3c0,0,0,0,0,0c0,0.1,0,0.2,0,0.2c0,0,0,0.1,0,0.1c0,0.1,0,0.2,0,0.3c0,0.1,0,0.1-0.1,0.2
							c0,0.1-0.1,0.2-0.1,0.4c0,0.1,0,0.1-0.1,0.2c0,0.1-0.1,0.1-0.1,0.2c0,0,0,0.1-0.1,0.1l0.6,0.3c0.9,0.3,1.8,0.7,2.8,1
							C213.3,27.5,214.5,27.9,215.6,28.1z"/>
						<path class="st16" d="M210.4,24.5c0.5-2.3-1.3-2.5-1.7-3.6c-0.1,0.1-0.2,0.3-0.3,0.4l-0.4,0.4c0.3,0.3,0.6,0.5,0.8,0.9
							c0.1,0.2,0.2,0.3,0.2,0.5c0,0.1,0.1,0.3,0.1,0.4c0,0.1,0,0.2,0,0.3c0,0,0,0.1,0,0.1c0,0.1,0,0.2,0,0.3c0,0,0,0,0,0
							c0,0.1,0,0.2,0,0.2c0,0,0,0.1,0,0.1c0,0.1,0,0.2,0,0.3c0,0.1,0,0.1-0.1,0.2c0,0.1-0.1,0.2-0.1,0.4c0,0.1,0,0.1-0.1,0.2
							c0,0.1-0.1,0.1-0.1,0.2c0,0,0,0.1-0.1,0.1l0.6,0.3c0.7,0.3,1.6,0.6,2.4,0.9C210.7,26.3,210.2,25.4,210.4,24.5z"/>
					</g>
					<g>
						<path class="st15" d="M209.5,22.5c0,0,2.2-2.2,5.2-2.9C214.7,19.7,211.2,19.5,209.5,22.5z"/>
						<path class="st15" d="M209.8,24.1c0,0,3-0.6,6.4,0.1C216.2,24.2,213.3,22.7,209.8,24.1z"/>
					</g>
				</g>
			</g>
			<path class="st17" d="M215.3,16c0.1,0,1.1,0.4,1.6,1.4c0.6,1,0,1.3,0.4,1.9c0.3,0.5,0.7,0.7,0.6,1.5c0,0.8-1.1,0.1-1.4-0.7
				c-0.3-0.8-0.2-1.2-0.6-1.6C215.6,18,214.4,15.5,215.3,16z"/>
		</g>
	</g>
</g>
</svg>
